<svg width="16" height="16" viewBox="0 0 16 16" fill="none" xmlns="http://www.w3.org/2000/svg"><path d="M7.9997 3.43944C6.36182 3.43944 5.0293 4.77197 5.0293 6.40984C5.0293 8.04772 6.36182 9.38025 7.9997 9.38025C9.63757 9.38025 10.9701 8.04772 10.9701 6.40984C10.9701 4.77197 9.6376 3.43944 7.9997 3.43944ZM7.9997 8.12956C7.05145 8.12956 6.27998 7.35809 6.27998 6.40984C6.27998 5.46159 7.05145 4.69013 7.9997 4.69013C8.94794 4.69013 9.71941 5.46159 9.71941 6.40984C9.71941 7.35809 8.94794 8.12956 7.9997 8.12956Z" fill="#898988"/><path d="M8.00066 0C4.46626 0 1.59082 2.87547 1.59082 6.40984V6.58703C1.59082 8.37453 2.61563 10.4575 4.63688 12.7781C6.10213 14.4603 7.54691 15.6333 7.60766 15.6824L8.00066 16L8.39366 15.6825C8.45445 15.6333 9.89923 14.4603 11.3644 12.7781C13.3857 10.4575 14.4105 8.37456 14.4105 6.58706V6.40987C14.4105 2.87547 11.5351 0 8.00066 0ZM13.1598 6.58706C13.1598 9.60784 9.2676 13.2646 8.00066 14.3746C6.73338 13.2642 2.84151 9.60763 2.84151 6.58706V6.40987C2.84151 3.56512 5.15591 1.25072 8.00066 1.25072C10.8454 1.25072 13.1598 3.56512 13.1598 6.40987V6.58706Z" fill="#898988"/></svg>