<svg width="15" height="15" viewBox="0 0 15 15" fill="none" xmlns="http://www.w3.org/2000/svg"><g clip-path="url(#clip0)"><path d="M7.91162 11.3796L14.8304 4.44166C15.0569 4.21435 15.0565 3.84632 14.8292 3.61939C14.6019 3.39263 14.2337 3.39322 14.0069 3.62056L7.49998 10.1455L0.993051 3.62032C0.766294 3.39301 0.398297 3.39242 0.170955 3.61915C0.0569906 3.73291 7.61049e-06 3.88194 7.60398e-06 4.03098C7.59748e-06 4.17963 0.0566091 4.32808 0.169783 4.44163L7.08836 11.3796C7.19728 11.4891 7.34552 11.5505 7.49998 11.5505C7.65443 11.5505 7.80249 11.4889 7.91162 11.3796Z" fill="black"/></g><defs><clipPath id="clip0"><rect width="15" height="15" fill="white" transform="translate(15) rotate(90)"/></clipPath></defs></svg>