<svg width="20" height="20" viewBox="0 0 20 20" fill="none" xmlns="http://www.w3.org/2000/svg"><g clip-path="url(#clip0)"><path d="M0.00364685 19.095L1.44966 6.16533C1.48286 5.86877 1.73356 5.64451 2.03196 5.64451H5.64456V4.60936C5.64456 2.20777 7.59842 0.253906 10 0.253906C12.4016 0.253906 14.3555 2.20777 14.3555 4.60936V5.64451H17.9699C18.2684 5.64451 18.5192 5.86881 18.5522 6.16541L19.9964 19.095C20.0149 19.2607 19.9619 19.4265 19.8507 19.5507C19.7396 19.675 19.5808 19.7461 19.414 19.7461H0.585911C0.419153 19.7461 0.260324 19.675 0.149155 19.5507C0.0379829 19.4265 -0.0149078 19.2607 0.00364685 19.095ZM13.1836 4.60936C13.1836 2.85394 11.7554 1.42578 10 1.42578C8.24459 1.42578 6.81643 2.85394 6.81643 4.60936V5.64451H13.1836V4.60936ZM18.759 18.5741L17.4458 6.81638H14.3555V8.08907C15.0374 8.33095 15.5273 8.98223 15.5273 9.74606C15.5273 10.7153 14.7388 11.5039 13.7695 11.5039C12.8003 11.5039 12.0117 10.7153 12.0117 9.74606C12.0117 8.98219 12.5016 8.33095 13.1836 8.08907V6.81638H6.81643V8.08907C7.49842 8.33095 7.9883 8.98223 7.9883 9.74606C7.9883 10.7153 7.19975 11.5039 6.23049 11.5039C5.26124 11.5039 4.47269 10.7153 4.47269 9.74606C4.47269 8.98219 4.96257 8.33095 5.64456 8.08907V6.81638H2.55602L1.24106 18.5741H18.759ZM13.7695 9.16016C13.4464 9.16016 13.1836 9.42301 13.1836 9.7461C13.1836 10.0692 13.4464 10.332 13.7695 10.332C14.0926 10.332 14.3555 10.0692 14.3555 9.7461C14.3555 9.42301 14.0926 9.16016 13.7695 9.16016ZM6.23049 9.16016C5.90741 9.16016 5.64456 9.42301 5.64456 9.7461C5.64456 10.0692 5.90741 10.332 6.23049 10.332C6.55358 10.332 6.81643 10.0692 6.81643 9.7461C6.81643 9.42301 6.55362 9.16016 6.23049 9.16016Z" fill="#191A1C"/></g><defs><clipPath id="clip0"><rect width="20" height="20" fill="white" transform="matrix(-1 0 0 1 20 0)"/></clipPath></defs></svg>