<svg width="358" height="41" viewBox="0 0 358 41" fill="none" xmlns="http://www.w3.org/2000/svg"><g clip-path="url(#clip0)"><path d="M162.511 22.1314C163.697 22.3899 164.708 23.1372 165.285 24.1819C165.851 25.205 165.941 26.3796 165.541 27.4891C165.42 27.8221 165.498 28.1749 165.748 28.4328C165.989 28.6818 166.343 28.7866 166.629 28.6936C166.775 28.6458 166.973 28.5257 167.082 28.2253C167.66 26.6249 167.558 24.9057 166.81 23.4509C169.076 23.8488 171.388 23.7053 173.519 23.0314L173.543 23.0236C173.647 22.9897 175.276 22.3478 175.623 22.1569L175.627 22.1641C176.645 21.6447 177.646 20.9853 178.687 20.1481C178.866 20.0039 179.047 19.8556 179.23 19.7056C180.438 18.7166 181.687 17.6939 183.126 17.2253C183.503 17.1026 183.881 17.0233 184.251 16.9895C185.49 16.8765 186.734 17.1152 187.743 17.6395C187.667 17.6292 187.592 17.6208 187.516 17.6141C186.888 17.5599 186.257 17.6339 185.642 17.8344C183.794 18.4362 182.115 20.2701 182.481 22.6105C182.64 23.6254 183.263 24.5337 184.19 25.1029C185.047 25.6287 186.031 25.77 186.89 25.4903C187.384 25.3294 187.822 25.0376 188.191 24.623C188.955 23.7661 189.436 22.0566 188.352 21.0755C187.805 20.58 187.054 20.4058 186.394 20.6209C185.932 20.7714 185.572 21.092 185.353 21.548C185.202 21.8638 185.246 22.2056 185.471 22.4623C185.707 22.7322 186.094 22.8485 186.411 22.7451C186.616 22.6785 186.778 22.5301 186.881 22.3161C186.932 22.2089 186.97 22.194 186.971 22.1939C186.978 22.1949 187.025 22.2176 187.088 22.3126C187.215 22.5042 187.288 22.8105 187.242 22.9551C187.152 23.2352 186.977 23.4752 186.761 23.6138C186.607 23.7124 186.448 23.7889 186.287 23.8412C186.004 23.9333 185.58 23.9922 185.166 23.7497C184.63 23.4354 184.279 22.9191 184.177 22.2957C184.068 21.6276 184.272 20.9199 184.722 20.4029C185.088 19.9838 185.559 19.6779 186.125 19.4939C186.866 19.2523 187.749 19.2269 188.679 19.4201C189.196 19.5275 189.679 19.9531 190.005 20.5878C190.444 21.4422 190.673 22.8974 190 24.419C189.504 25.542 188.469 26.4527 187.233 26.8552C186.675 27.037 186.108 27.1063 185.548 27.0612C183.66 26.9093 182.066 25.5649 181.582 23.7157C181.523 23.4887 181.394 23.3156 181.21 23.2151C181.019 23.1108 180.777 23.0938 180.547 23.1687C180.147 23.299 179.814 23.704 179.95 24.2258C180.109 24.834 180.33 25.3624 180.604 25.796C181.373 27.0089 182.5 27.8977 183.862 28.3661C185.161 28.8125 186.583 28.8282 187.867 28.41C189.087 28.0128 190.134 27.2442 190.895 26.1876C192.114 24.4943 192.467 22.2439 191.84 20.1672C191.221 18.1203 189.763 16.5312 187.839 15.8072C186.641 15.3562 185.407 15.1887 184.201 15.3065C185.224 14.98 186.189 14.9135 187.147 15.1023C189.173 15.5018 190.71 16.5043 191.715 18.0824C192.931 19.992 193.25 22.6159 192.592 25.2811C192.518 25.5803 192.596 25.8642 192.807 26.0603C193.041 26.2776 193.406 26.3558 193.716 26.2549C193.994 26.1643 194.187 25.9508 194.26 25.6538C195 22.6626 194.547 19.4667 193.049 17.1048C191.832 15.1867 189.996 13.9339 187.741 13.482C186.345 13.2023 184.971 13.2928 183.541 13.7587C182.494 14.0996 181.439 14.6357 180.316 15.3973C179.229 16.1348 178.19 16.9666 177.219 17.8759C177.651 16.1526 177.322 14.3669 176.294 12.9909C174.686 10.838 171.924 9.93931 169.422 10.7543C168.855 10.939 168.312 11.2071 167.81 11.5514C167.394 11.836 167.372 12.2966 167.535 12.6269C167.701 12.9636 168.095 13.231 168.527 13.0902C168.606 13.0645 168.683 13.0259 168.757 12.975C169.12 12.7262 169.518 12.5305 169.939 12.3934C171.901 11.7545 173.987 12.4742 175.01 14.1434C175.078 14.2536 175.14 14.366 175.198 14.48C174.482 13.6525 173.498 13.1328 172.366 13.0081C171.839 12.9502 171.314 13.0046 170.805 13.1702C169.777 13.5052 168.891 14.2925 168.436 15.2761C168.014 16.1891 167.988 17.1953 168.364 18.1092C168.975 19.5967 170.628 20.0661 171.873 19.6604C172.753 19.3738 173.632 18.5518 173.46 17.1045C173.428 16.8372 173.291 16.6134 173.074 16.4747C172.843 16.3273 172.536 16.2889 172.274 16.3745C171.906 16.4943 171.707 16.8137 171.754 17.208C171.816 17.7275 171.489 18.0257 171.19 18.1226C170.85 18.2335 170.478 18.1307 170.221 17.8542C169.658 17.2501 169.642 16.2422 170.185 15.6074C170.497 15.2415 170.894 14.9729 171.33 14.8307C172.167 14.5583 173.063 14.7695 173.727 15.3958C174.935 16.5351 175.064 18.5801 174.009 19.8614C173.521 20.4544 172.793 20.9026 171.783 21.2313C171.3 21.3888 170.748 21.5189 170.095 21.6295C167.741 22.0282 165.286 21.5855 163.181 20.3835C162.972 20.2641 162.752 20.2366 162.546 20.3037C162.343 20.3699 162.167 20.5274 162.059 20.7373C161.866 20.9784 161.805 21.3178 161.904 21.6078C161.997 21.8804 162.212 22.0663 162.511 22.1314Z" fill="#C7AB91"/><path d="M192.8 27.4527C192.732 27.2435 192.598 27.0698 192.423 26.9636C192.221 26.8411 191.986 26.8184 191.743 26.8976C191.224 27.0668 191.085 27.5643 191.216 27.9683C191.285 28.1776 191.418 28.3513 191.593 28.4574C191.795 28.5799 192.03 28.6026 192.273 28.5234C192.792 28.3542 192.931 27.8568 192.8 27.4527Z" fill="#C7AB91"/></g><path d="M0 21.5372L146.721 19.5809L152.59 21.5372L146.721 23.4935L0 21.5372Z" fill="#C7AB91"/><path d="M358 21.5372L211.279 19.5809L205.41 21.5372L211.279 23.4935L358 21.5372Z" fill="#C7AB91"/><defs><clipPath id="clip0"><rect width="31.3005" height="31.3005" fill="white" transform="translate(197.749 30.5938) rotate(161.961)"/></clipPath></defs></svg>