<svg width="102" height="29" viewBox="0 0 102 29" fill="none" xmlns="http://www.w3.org/2000/svg"><rect y="5" width="18" height="18" rx="3" fill="#920038"/><g clip-path="url(#clip0)"><path d="M8.06334 16.9885C7.98698 17.0654 7.88279 17.1082 7.77456 17.1082C7.66634 17.1082 7.56215 17.0654 7.48578 16.9885L5.17951 14.6819C4.94016 14.4426 4.94016 14.0544 5.17951 13.8156L5.46829 13.5267C5.7077 13.2874 6.09536 13.2874 6.3347 13.5267L7.77456 14.9666L11.6653 11.0758C11.9047 10.8365 12.2927 10.8365 12.5317 11.0758L12.8205 11.3647C13.0598 11.604 13.0598 11.9921 12.8205 12.231L8.06334 16.9885Z" fill="#FAFAFA"/></g><defs><clipPath id="clip0"><rect width="8" height="8" fill="white" transform="translate(5 10)"/></clipPath></defs></svg>