<svg width="14" height="14" viewBox="0 0 14 14" fill="none" xmlns="http://www.w3.org/2000/svg"><path d="M12.7695 0H1.23047C0.551934 0 0 0.553109 0 1.23047V12.7695C0 13.448 0.551988 14 1.23047 14H12.7695C13.4481 14 14 13.4469 14 12.7695V1.23047C14 0.551934 13.4469 0 12.7695 0ZM12.5996 0.820312L10.4832 2.9368C9.50983 2.09811 8.28781 1.64062 7 1.64062C5.71219 1.64062 4.49017 2.09811 3.51684 2.9368L1.40036 0.820312H12.5996ZM6.41996 7L3.51507 9.90489C2.85734 9.11717 2.46094 8.10406 2.46094 7C2.46094 5.89594 2.85734 4.88283 3.51507 4.09511L6.41996 7ZM4.09511 3.51507C4.88283 2.85734 5.89594 2.46094 7 2.46094C8.10406 2.46094 9.11717 2.85734 9.90489 3.51507L7 6.41996L4.09511 3.51507ZM7 7.58004L9.90489 10.4849C9.11717 11.1427 8.10406 11.5391 7 11.5391C5.89594 11.5391 4.88283 11.1427 4.09511 10.4849L7 7.58004ZM7.58004 7L10.4849 4.09511C11.1427 4.88283 11.5391 5.89594 11.5391 7C11.5391 8.10406 11.1427 9.11717 10.4849 9.90489L7.58004 7ZM0.820312 12.5996V1.40036L2.9368 3.51684C2.09814 4.49017 1.64062 5.71219 1.64062 7C1.64062 8.28781 2.09814 9.50983 2.9368 10.4832L0.820312 12.5996ZM1.40036 13.1797L3.51684 11.0632C4.49017 11.9019 5.71219 12.3594 7 12.3594C8.28781 12.3594 9.50983 11.9019 10.4832 11.0632L12.5996 13.1797H1.40036ZM13.1797 12.5996L11.0632 10.4832C11.9019 9.50983 12.3594 8.28781 12.3594 7C12.3594 5.71219 11.9019 4.49017 11.0632 3.51684L13.1797 1.40036V12.5996Z" fill="black"/></svg>