<svg width="18" height="18" viewBox="0 0 18 18" fill="none" xmlns="http://www.w3.org/2000/svg"><path d="M17.0056 0.000976562H0.993463C0.445162 0.000976562 0 0.445249 0 0.99444V17.0066C0 17.5558 0.445162 18.0007 0.993463 18.0007H9.61395V11.0301H7.2684V8.31323H9.61395V6.30971C9.61395 3.9852 11.0333 2.71877 13.1074 2.71877C14.1017 2.71877 14.9544 2.79317 15.2031 2.82547V5.25519L13.7644 5.25578C12.6367 5.25578 12.4192 5.79193 12.4192 6.57823V8.31234H15.1097L14.7579 11.029H12.4189V17.9998H17.0054C17.5542 17.9998 17.9997 17.5543 17.9997 17.0066V0.993847C17.9994 0.445249 17.5545 0.000976562 17.0056 0.000976562Z" fill="#8FBAD9"/></svg>