<svg width="16" height="16" viewBox="0 0 16 16" fill="none" xmlns="http://www.w3.org/2000/svg"><g clip-path="url(#clip0)"><path d="M12.5366 8.00002C12.5366 6.64874 11.4373 5.54939 10.086 5.54939C8.73471 5.54939 7.63537 6.64874 7.63537 8.00002C7.63537 9.3513 8.73471 10.4506 10.086 10.4506C11.4373 10.4506 12.5366 9.3513 12.5366 8.00002ZM8.85052 8.00002C8.85052 7.3187 9.40487 6.76458 10.086 6.76458C10.7673 6.76458 11.3214 7.3187 11.3214 8.00002C11.3214 8.68114 10.7673 9.23545 10.086 9.23545C9.40465 9.23545 8.85052 8.68114 8.85052 8.00002Z" fill="#898988"/><path d="M8.83057 8.00002C8.83057 7.66442 8.55857 7.39243 8.22297 7.39243L1.01285 7.39243C0.677258 7.39243 0.405258 7.66442 0.405258 8.00002C0.405258 8.33561 0.677257 8.60761 1.01285 8.60761L8.22297 8.60761C8.55857 8.60761 8.83057 8.33561 8.83057 8.00002Z" fill="#898988"/><path d="M15.5947 8.00002C15.5947 7.66443 15.3227 7.39243 14.9871 7.39243L11.9289 7.39243C11.5933 7.39243 11.3213 7.66442 11.3213 8.00002C11.3213 8.33561 11.5933 8.60761 11.9289 8.60761L14.9871 8.60761C15.3227 8.60761 15.5947 8.33561 15.5947 8.00002Z" fill="#898988"/><path d="M8.36475 13.5494C8.36475 12.1983 7.2654 11.0988 5.91412 11.0988C4.56284 11.0988 3.4635 12.1983 3.4635 13.5494C3.4635 14.9007 4.56284 16 5.91412 16C7.2654 16 8.36475 14.9005 8.36475 13.5494ZM4.67846 13.5494C4.67846 12.8679 5.23281 12.3137 5.91412 12.3137C6.59543 12.3137 7.14956 12.8681 7.14956 13.5494C7.14956 14.2307 6.59521 14.7848 5.91412 14.7848C5.23259 14.7848 4.67846 14.2305 4.67846 13.5494Z" fill="#898988"/><path d="M4.67871 13.5494C4.67871 13.2138 4.40671 12.9418 4.07112 12.9418L1.0129 12.9418C0.677305 12.9418 0.405305 13.2138 0.405305 13.5494C0.405305 13.8852 0.677305 14.157 1.0129 14.157L4.07112 14.157C4.40671 14.157 4.67871 13.885 4.67871 13.5494Z" fill="#898988"/><path d="M15.5947 13.5494C15.5947 13.2138 15.3227 12.9418 14.9871 12.9418L7.777 12.9418C7.44141 12.9418 7.16941 13.2138 7.16941 13.5494C7.16941 13.8852 7.44141 14.157 7.777 14.157L14.9871 14.157C15.3227 14.157 15.5947 13.885 15.5947 13.5494Z" fill="#898988"/><path d="M8.36475 2.45064C8.36475 1.09936 7.2654 1.52107e-05 5.91412 1.51517e-05C4.56284 1.50926e-05 3.4635 1.09936 3.4635 2.45064C3.4635 3.80192 4.56284 4.90126 5.91412 4.90126C7.2654 4.90129 8.36475 3.80195 8.36475 2.45064ZM4.67847 2.45064C4.67847 1.76933 5.23281 1.2152 5.91412 1.2152C6.59544 1.2152 7.14956 1.76933 7.14956 2.45064C7.14956 3.13195 6.59522 3.68608 5.91412 3.68608C5.23259 3.68608 4.67847 3.13195 4.67847 2.45064Z" fill="#898988"/><path d="M4.67871 2.45064C4.67871 2.11505 4.40671 1.84305 4.07112 1.84305L1.0129 1.84305C0.677306 1.84305 0.405307 2.11505 0.405307 2.45064C0.405307 2.78623 0.677306 3.05823 1.0129 3.05823L4.07112 3.05823C4.40671 3.05823 4.67871 2.78623 4.67871 2.45064Z" fill="#898988"/><path d="M15.5947 2.45064C15.5947 2.11505 15.3227 1.84305 14.9871 1.84305L7.77701 1.84305C7.44141 1.84305 7.16941 2.11505 7.16941 2.45064C7.16941 2.78623 7.44141 3.05823 7.77701 3.05823L14.9871 3.05823C15.3227 3.05823 15.5947 2.78623 15.5947 2.45064Z" fill="#898988"/></g><defs><clipPath id="clip0"><rect width="16" height="16" fill="white" transform="translate(16) rotate(90)"/></clipPath></defs></svg>