<svg width="16" height="16" viewBox="0 0 16 16" fill="none" xmlns="http://www.w3.org/2000/svg"><g clip-path="url(#clip0)"><path d="M5.33504 0H1.77608C0.795042 0 0 0.795167 0 1.77608V5.335C0 6.31604 0.795167 7.11108 1.77608 7.11108H5.335C6.31604 7.11108 7.11108 6.31592 7.11108 5.335V1.77608C7.11112 0.795042 6.31592 0 5.33504 0ZM5.33333 5.33333H1.77779V1.77779H5.33333V5.33333Z" fill="#898988"/><path d="M14.2242 0H10.6652C9.6842 0 8.88916 0.795167 8.88916 1.77608V5.335C8.88916 6.31604 9.68433 7.11108 10.6652 7.11108H14.2242C15.2052 7.11108 16.0002 6.31592 16.0002 5.335V1.77608C16.0002 0.795042 15.2051 0 14.2242 0ZM14.2225 5.33333H10.6669V1.77779H14.2225V5.33333Z" fill="#898988"/><path d="M5.33504 8.88889H1.77608C0.795042 8.88889 0 9.68409 0 10.665V14.2239C0 15.205 0.795167 16 1.77608 16H5.335C6.31604 16 7.11108 15.2048 7.11108 14.2239V10.665C7.11112 9.68393 6.31592 8.88889 5.33504 8.88889ZM5.33333 14.2222H1.77779V10.6667H5.33333V14.2222Z" fill="#898988"/><path d="M14.2242 8.88889H10.6652C9.6842 8.88889 8.88916 9.68405 8.88916 10.665V14.2239C8.88916 15.2049 9.68433 16 10.6652 16H14.2242C15.2052 16 16.0002 15.2048 16.0002 14.2239V10.665C16.0002 9.68393 15.2051 8.88889 14.2242 8.88889ZM14.2225 14.2222H10.6669V10.6667H14.2225V14.2222Z" fill="#898988"/></g><defs><clipPath id="clip0"><rect width="16" height="16" fill="white"/></clipPath></defs></svg>