<svg width="63" height="63" viewBox="0 0 63 63" fill="none" xmlns="http://www.w3.org/2000/svg"><g clip-path="url(#clip0)"><path d="M47.6923 38.0496V12.7992C47.6923 11.6124 46.7268 10.6469 45.54 10.6469H14.1992C13.0124 10.6469 12.0469 11.6124 12.0469 12.7992V38.0495C12.0469 39.2363 13.0124 40.2018 14.1992 40.2018H45.54C46.7268 40.2019 47.6923 39.2364 47.6923 38.0496ZM13.8917 38.0496V28.1915L18.7762 23.3069C18.8544 23.2285 18.946 23.2168 18.9936 23.2168C19.0412 23.2168 19.1325 23.2285 19.211 23.3069L20.2621 24.3579C20.6221 24.7182 21.2062 24.7181 21.5666 24.3579C21.9268 23.9977 21.9268 23.4137 21.5665 23.0534L20.5156 22.0025C20.1092 21.5959 19.5686 21.372 18.9937 21.372C18.4187 21.372 17.8783 21.5958 17.4718 22.0023L13.892 25.5823V12.7992C13.892 12.6296 14.0299 12.4917 14.1995 12.4917H45.5402C45.7098 12.4917 45.8477 12.6296 45.8477 12.7992V38.0495C45.8477 38.219 45.7098 38.357 45.5402 38.357H44.6404L33.1477 26.8642C32.3084 26.0252 30.9431 26.0252 30.1038 26.8643L27.7409 29.2273L24.5061 25.9925C24.146 25.6322 23.562 25.6322 23.2014 25.9925C22.8413 26.3527 22.8413 26.9368 23.2014 27.297L26.6538 30.7494C26.9442 31.0396 27.3303 31.1996 27.7409 31.1996C28.1515 31.1996 28.5377 31.0396 28.828 30.7492L31.4084 28.1688C31.5283 28.049 31.7233 28.049 31.8433 28.1688L42.0313 38.357H14.1992C14.0297 38.357 13.8917 38.219 13.8917 38.0496Z" fill="#D20373"/><path d="M53.8843 45.0846V33.2713C53.8843 32.7618 53.4714 32.3488 52.9619 32.3488C52.4523 32.3488 52.0394 32.7617 52.0394 33.2713V43.6937C50.4939 42.7785 48.6929 42.2509 46.7702 42.2509C41.4892 42.2509 37.1203 46.218 36.4796 51.3281H8.62279C8.11412 51.3281 7.70031 50.9143 7.70031 50.4057V2.76732C7.70031 2.25865 8.11412 1.84484 8.62279 1.84484H51.1169C51.6256 1.84484 52.0394 2.25865 52.0394 2.76732V28.6758C52.0394 29.1852 52.4523 29.5983 52.9619 29.5983C53.4714 29.5983 53.8843 29.1854 53.8843 28.6758V2.76732C53.8843 1.24142 52.6429 0 51.117 0H8.62279C7.09689 0 5.85547 1.24142 5.85547 2.76732V50.4057C5.85547 51.9316 7.09689 53.173 8.62279 53.173H36.4116C36.5105 55.0754 37.1228 56.8981 38.2004 58.4743C38.488 58.8949 39.0621 59.0026 39.4825 58.7153C39.903 58.4277 40.0109 57.8537 39.7234 57.4331C38.7533 56.0141 38.2405 54.3517 38.2405 52.6254C38.2405 47.9221 42.0669 44.0958 46.7702 44.0958C51.4734 44.0958 55.2998 47.9222 55.2998 52.6254C55.2998 57.3286 51.4734 61.1552 46.7702 61.1552C45.368 61.1552 43.9782 60.8079 42.7509 60.151C42.3017 59.9107 41.7427 60.0798 41.5024 60.5288C41.262 60.978 41.4311 61.537 41.8804 61.7774C43.3744 62.5772 45.0653 62.9999 46.7702 62.9999C52.4907 62.9999 57.1447 58.3459 57.1447 52.6253C57.1447 49.6568 55.8895 46.9775 53.8843 45.0846Z" fill="#D20373"/><path d="M46.7694 47.8787C46.2599 47.8787 45.847 48.2916 45.847 48.8011V51.7295H42.9186C42.409 51.7295 41.9961 52.1425 41.9961 52.652C41.9961 53.1616 42.409 53.5745 42.9186 53.5745H45.847V56.5029C45.847 57.0123 46.2599 57.4254 46.7694 57.4254C47.279 57.4254 47.6919 57.0124 47.6919 56.5029V53.5745H50.6203C51.1299 53.5745 51.5428 53.1616 51.5428 52.652C51.5428 52.1425 51.1299 51.7295 50.6203 51.7295H47.6919V48.8011C47.6918 48.2917 47.2789 47.8787 46.7694 47.8787Z" fill="#D20373"/><path d="M15.5508 44.6534C15.6214 43.9434 15.1031 43.3105 14.3931 43.2399C13.683 43.1692 13.0501 43.6875 12.9795 44.3976C12.9088 45.1076 13.4272 45.7405 14.1372 45.8111C14.8473 45.8818 15.4801 45.3635 15.5508 44.6534Z" fill="#D20373"/><path d="M20.1172 44.6539C20.1879 43.9438 19.6695 43.311 18.9595 43.2403C18.2494 43.1697 17.6165 43.688 17.5459 44.3981C17.4752 45.1081 17.9936 45.741 18.7036 45.8116C19.4137 45.8823 20.0466 45.3639 20.1172 44.6539Z" fill="#D20373"/><path d="M24.6836 44.6544C24.7543 43.9444 24.2359 43.3115 23.5259 43.2408C22.8158 43.1702 22.1829 43.6885 22.1123 44.3986C22.0416 45.1086 22.56 45.7415 23.27 45.8121C23.9801 45.8828 24.613 45.3644 24.6836 44.6544Z" fill="#D20373"/><path d="M33.4194 7.66772C33.929 7.66772 34.3419 7.25477 34.3419 6.74524C34.3419 6.2357 33.929 5.82275 33.4194 5.82275H29.4225C28.9129 5.82275 28.5 6.2357 28.5 6.74524C28.5 7.25477 28.9129 7.66772 29.4225 7.66772H33.4194Z" fill="#D20373"/><path d="M24.6864 7.66772C25.1959 7.66772 25.6088 7.25477 25.6088 6.74524C25.6088 6.2357 25.1959 5.82275 24.6864 5.82275H13.7701C13.2606 5.82275 12.8477 6.2357 12.8477 6.74524C12.8477 7.25477 13.2606 7.66772 13.7701 7.66772H24.6864Z" fill="#D20373"/><path d="M37.6851 23.5857C39.4866 23.5857 40.9522 22.1201 40.9522 20.3185C40.9522 18.517 39.4866 17.0514 37.6851 17.0514C35.8836 17.0514 34.418 18.517 34.418 20.3185C34.418 22.1201 35.8836 23.5857 37.6851 23.5857ZM37.6851 18.8964C38.4693 18.8964 39.1073 19.5344 39.1073 20.3185C39.1073 21.1027 38.4693 21.7407 37.6851 21.7407C36.9009 21.7407 36.2629 21.1027 36.2629 20.3185C36.2628 19.5345 36.9009 18.8964 37.6851 18.8964Z" fill="#D20373"/></g><defs><clipPath id="clip0"><rect width="63" height="63" fill="white"/></clipPath></defs></svg>