<svg width="20" height="20" viewBox="0 0 20 20" fill="none" xmlns="http://www.w3.org/2000/svg"><path d="M10 0C4.47309 0 0 4.4725 0 10C0 15.5269 4.4725 20 10 20C15.5269 20 20 15.5275 20 10C20 4.47309 15.5275 0 10 0ZM10 18.6046C5.25539 18.6046 1.39535 14.7446 1.39535 10C1.39535 5.25539 5.25539 1.39535 10 1.39535C14.7446 1.39535 18.6046 5.25539 18.6046 10C18.6046 14.7446 14.7446 18.6046 10 18.6046Z" fill="#920038"/><path d="M9.99991 7.95349C9.61459 7.95349 9.30225 8.26587 9.30225 8.65115V14.3721C9.30225 14.7574 9.61463 15.0697 9.99991 15.0697C10.3852 15.0697 10.6976 14.7573 10.6976 14.3721V8.65119C10.6976 8.26587 10.3852 7.95349 9.99991 7.95349Z" fill="#920038"/><path d="M9.99991 4.9303C9.61459 4.9303 9.30225 5.24268 9.30225 5.62795V6.46517C9.30225 6.85049 9.61463 7.16283 9.99991 7.16283C10.3852 7.16283 10.6976 6.85045 10.6976 6.46517V5.62795C10.6976 5.24268 10.3852 4.9303 9.99991 4.9303Z" fill="#920038"/></svg>