<svg width="14" height="14" viewBox="0 0 14 14" fill="none" xmlns="http://www.w3.org/2000/svg"><path d="M7.41016 7.82034C6.73168 7.82034 6.17969 8.37233 6.17969 9.05081C6.17969 9.72929 6.73168 10.2813 7.41016 10.2813C8.08864 10.2813 8.64062 9.72929 8.64062 9.05081C8.64062 8.37233 8.08864 7.82034 7.41016 7.82034ZM7.41016 9.46096C7.184 9.46096 7 9.27697 7 9.05081C7 8.82465 7.184 8.64065 7.41016 8.64065C7.63632 8.64065 7.82031 8.82465 7.82031 9.05081C7.82031 9.27697 7.63632 9.46096 7.41016 9.46096Z" fill="black"/><path d="M13.9925 11.3759C13.9919 11.3708 13.9913 11.3658 13.9905 11.3607L13.1525 5.73912V3.30854C13.1525 2.17774 12.2325 1.25773 11.1017 1.25773H3.71878C3.0403 1.25773 2.48831 1.80972 2.48831 2.4882C2.48831 3.16668 3.0403 3.71867 3.71878 3.71867H10.6915V5.35932H6.17974C2.77222 5.35935 0 8.11932 0 11.5117V12.3321C0 12.5586 0.183641 12.7422 0.410156 12.7422H12.7695C13.1191 12.7422 13.4533 12.5929 13.6864 12.3324C13.9195 12.072 14.0311 11.7233 13.9925 11.3759ZM3.71878 2.89841C3.49262 2.89841 3.30862 2.71441 3.30862 2.48825C3.30862 2.26209 3.49262 2.0781 3.71878 2.0781H11.1017C11.7802 2.0781 12.3321 2.63008 12.3321 3.30856V5.35937H11.5118V3.30856C11.5118 3.08202 11.3282 2.89841 11.1017 2.89841H3.71878ZM13.0752 11.7853C12.9963 11.8734 12.8878 11.9219 12.7695 11.9219H0.820312V11.5118C0.820312 8.57166 3.22454 6.17969 6.17974 6.17969H12.3887L13.1778 11.4728C13.1889 11.5881 13.1526 11.6988 13.0752 11.7853Z" fill="black"/></svg>