<svg width="16" height="16" viewBox="0 0 16 16" fill="none" xmlns="http://www.w3.org/2000/svg"><path d="M1.65519 -0.0689697C0.740967 -0.0689697 0 0.671997 0 1.58619C0 2.50039 0.740967 3.24138 1.65519 3.24138C2.56939 3.24138 3.31035 2.50042 3.31035 1.58619C3.31035 0.671971 2.56939 -0.0689697 1.65519 -0.0689697ZM1.65519 6.34481C0.740967 6.34481 0 7.0858 0 8C0 8.91422 0.740967 9.65519 1.65519 9.65519C2.56939 9.65519 3.31035 8.91422 3.31035 8C3.31035 7.0858 2.56939 6.34481 1.65519 6.34481ZM1.65519 12.7586C0.740967 12.7586 0 13.4996 0 14.4138C0 15.328 0.740967 16.069 1.65519 16.069C2.56939 16.069 3.31035 15.328 3.31035 14.4138C3.31035 13.4996 2.56939 12.7586 1.65519 12.7586ZM6.06897 2.68964H14.8966C15.5062 2.68964 16 2.19584 16 1.58619C16 0.976546 15.5062 0.482742 14.8966 0.482742H6.06897C5.45932 0.482742 4.96552 0.976546 4.96552 1.58619C4.96552 2.19584 5.45932 2.68964 6.06897 2.68964ZM14.8966 6.89655H6.06897C5.45932 6.89655 4.96552 7.39035 4.96552 8C4.96552 8.60964 5.45932 9.10345 6.06897 9.10345H14.8966C15.5062 9.10345 16 8.60964 16 8C16 7.39035 15.5062 6.89655 14.8966 6.89655ZM14.8966 13.3103H6.06897C5.45932 13.3103 4.96552 13.8041 4.96552 14.4138C4.96552 15.0234 5.45932 15.5172 6.06897 15.5172H14.8966C15.5062 15.5172 16 15.0234 16 14.4138C16 13.8041 15.5062 13.3103 14.8966 13.3103Z" fill="#898988"/></svg>