<svg width="18" height="18" viewBox="0 0 18 18" fill="none" xmlns="http://www.w3.org/2000/svg"><path d="M15.7375 2.26358C14.2778 0.803886 12.337 0 10.2728 0C8.20848 0 6.26774 0.803886 4.80808 2.26358C3.34843 3.72324 2.54451 5.66397 2.54451 7.72822C2.54451 9.61552 3.21684 11.3993 4.44759 12.8068L0.155594 17.0989C-0.0505627 17.305 -0.0505627 17.6393 0.155594 17.8454C0.258673 17.9485 0.393779 18.0001 0.52885 18.0001C0.663921 18.0001 0.799062 17.9485 0.902105 17.8454L5.19414 13.5534C6.60169 14.7841 8.38546 15.4565 10.2728 15.4565C12.3371 15.4565 14.2777 14.6526 15.7374 13.1929C17.1971 11.7333 18.001 9.79253 18.001 7.72825C18.001 5.66397 17.1971 3.72324 15.7375 2.26358ZM14.9909 12.4464C12.3893 15.0479 8.15627 15.0479 5.55467 12.4464C2.95309 9.8448 2.95309 5.61173 5.55467 3.01016C6.85559 1.70923 8.56391 1.05898 10.2728 1.05898C11.9813 1.05898 13.6903 1.70955 14.9909 3.01016C17.5924 5.6117 17.5924 9.84477 14.9909 12.4464Z" fill="#191A1C"/></svg>