<svg width="14" height="14" viewBox="0 0 14 14" fill="none" xmlns="http://www.w3.org/2000/svg"><g clip-path="url(#clip0)"><path d="M12.9301 11.9389C13.7828 11.8395 14.2695 10.9146 13.8149 10.1822L10.1545 4.27919L13.8799 0.677974C14.04 0.523133 14.04 0.272132 13.8799 0.117292C13.7197 -0.0375485 13.46 -0.0375485 13.2998 0.117292L9.7197 3.57807L8.02866 0.851052C7.5596 0.095353 6.42809 0.096939 5.95988 0.851184L4.27343 3.57083L0.700861 0.117292C0.540708 -0.0375485 0.281025 -0.0375485 0.120845 0.117292C-0.0393345 0.272132 -0.0393345 0.523133 0.120845 0.677974L3.83872 4.27192L0.173783 10.1822C-0.282502 10.9175 0.209576 11.8472 1.06951 11.94L0.120873 12.857C-0.0393071 13.0118 -0.0393071 13.2628 0.120873 13.4176C0.281025 13.5725 0.540736 13.5725 0.700888 13.4176L2.22128 11.9479H11.7794L13.2998 13.4176C13.4599 13.5725 13.7197 13.5725 13.8798 13.4176C14.04 13.2628 14.04 13.0118 13.8798 12.857L12.9301 11.9389ZM6.66338 1.25901C6.81334 1.01742 7.17537 1.01747 7.32524 1.25885L9.1218 4.15607L7.00037 6.20679L4.87141 4.1488L6.66338 1.25901ZM1.88151 11.155H1.2082C0.908154 11.155 0.722654 10.839 0.877228 10.59C0.877255 10.5899 0.877283 10.5899 0.87731 10.5898L4.43665 4.84994L6.42032 6.7675L1.88151 11.155ZM3.04157 11.155L7.00037 7.32818L10.9592 11.155H3.04157ZM12.1192 11.155L7.58038 6.7675L9.55657 4.85718L13.1115 10.59C13.2658 10.8387 13.081 11.155 12.7805 11.155H12.1192Z" fill="black"/></g><defs><clipPath id="clip0"><rect width="14" height="13.5333" fill="white"/></clipPath></defs></svg>