<svg width="14" height="14" viewBox="0 0 14 14" fill="none" xmlns="http://www.w3.org/2000/svg"><g clip-path="url(#clip0)"><path d="M12.5989 10.6412C12.6081 10.5847 13.9574 2.37077 13.9946 2.14463C14.0313 1.9211 13.8798 1.71014 13.6563 1.67342C13.433 1.63672 13.2218 1.78812 13.1851 2.01166L12.9452 3.47231C12.3927 3.21676 11.7812 3.18605 11.2141 3.38281L13.6389 0.968439C13.7995 0.808614 13.8 0.548903 13.6402 0.388394C13.4803 0.227859 13.2206 0.227312 13.0601 0.387137L9.29853 4.13255C9.02151 4.0963 8.7508 3.98318 8.51316 3.79305C7.61576 3.07514 6.42841 3.07249 5.52773 3.79305C5.27956 3.9916 4.9953 4.10589 4.70548 4.13663L0.939881 0.387191C0.779318 0.227367 0.519716 0.227914 0.359837 0.388449C0.200012 0.548957 0.200587 0.808669 0.361095 0.968493L2.7642 3.36124C2.20111 3.18228 1.60012 3.22589 1.05773 3.48956L0.814947 2.01169C0.778197 1.78815 0.567349 1.63675 0.343731 1.67344C0.120196 1.71017 -0.0312342 1.92112 0.00548856 2.14466C0.0134456 2.19339 1.36073 10.3952 1.40112 10.6412C1.4015 10.6435 1.40188 10.6458 1.40232 10.6481C1.46581 10.9972 1.61555 11.3118 1.82667 11.5722L0.377173 13.0154C0.216665 13.1753 0.216091 13.435 0.375915 13.5955C0.535794 13.756 0.795478 13.7565 0.955986 13.5967L2.46359 12.0956C2.75067 12.247 3.07672 12.332 3.42002 12.332H10.58C10.9232 12.332 11.2493 12.2471 11.5363 12.0956L13.0601 13.6128C13.2206 13.7727 13.4803 13.7721 13.6402 13.6116C13.8 13.451 13.7994 13.1914 13.6389 13.0315L12.1733 11.5722C12.3844 11.3118 12.5342 10.9972 12.5977 10.6481C12.5981 10.6458 12.5985 10.6435 12.5989 10.6412ZM6.05227 4.44868C6.64043 3.97814 7.40051 3.97814 7.98868 4.44868C8.18407 4.605 8.39408 4.72731 8.61231 4.81582L6.99998 6.4212L5.39914 4.82725C5.62792 4.73792 5.84812 4.61203 6.05227 4.44868ZM2.41297 10.9884C2.31377 10.8472 2.24298 10.6834 2.20997 10.5045L1.20301 4.37438C1.77677 3.97732 2.47805 3.99947 3.0395 4.44868C3.44676 4.77448 3.91716 4.95249 4.39373 4.98377L6.41868 6.99999L2.41297 10.9884ZM10.58 11.5117H3.42005C3.30758 11.5117 3.19823 11.4965 3.09405 11.4679L7.00001 7.5788L10.906 11.4679C10.8018 11.4965 10.6924 11.5117 10.58 11.5117ZM11.79 10.5045C11.757 10.6834 11.6862 10.8472 11.587 10.9884L7.58128 7.00002L9.60344 4.98658C10.0949 4.96359 10.5818 4.78443 11.0014 4.44868C11.5483 4.01118 12.2346 3.97962 12.801 4.34961L11.79 10.5045Z" fill="black"/></g><defs><clipPath id="clip0"><rect width="14" height="14" fill="white"/></clipPath></defs></svg>