<svg width="18" height="18" viewBox="0 0 18 18" fill="none" xmlns="http://www.w3.org/2000/svg"><path d="M9.01012 7.19805C10.0149 7.19479 10.8151 6.38805 10.8115 5.381C10.8074 4.37396 10.0059 3.57181 9.00073 3.57105C7.98718 3.57009 7.17775 4.3866 7.1856 5.40283C7.19307 6.40605 8.00231 7.20226 9.01012 7.19805Z" fill="#8FBAD9"/><path d="M17.0426 0H0.957447C0.428745 0 0 0.428553 0 0.957447V17.0426C0 17.5714 0.428745 18 0.957447 18H17.0426C17.5714 18 18 17.5714 18 17.0426V0.957447C18 0.428553 17.5714 0 17.0426 0ZM9.01532 1.6786C11.0641 1.68377 12.709 3.36006 12.6988 5.43217C12.6879 7.45621 11.0162 9.09689 8.9707 9.09C6.94551 9.08311 5.28491 7.40432 5.2964 5.37587C5.30847 3.32521 6.97021 1.67247 9.01532 1.6786ZM13.1655 10.5457C12.7124 11.0112 12.167 11.3475 11.5612 11.5828C10.9884 11.8042 10.3609 11.9164 9.73972 11.9907C9.83355 12.0929 9.87779 12.1425 9.936 12.2017C10.7793 13.049 11.6261 13.8929 12.4665 14.7428C12.7526 15.0321 12.8131 15.3911 12.6551 15.728C12.4826 16.0966 12.0968 16.3384 11.718 16.3124C11.4783 16.2956 11.2914 16.1763 11.1255 16.0095C10.489 15.3689 9.84045 14.7405 9.21734 14.0886C9.036 13.8987 8.94868 13.9341 8.78821 14.0994C8.14806 14.7585 7.49796 15.4074 6.84364 16.0526C6.5497 16.3425 6.20023 16.3944 5.85881 16.2291C5.49651 16.0535 5.26634 15.6837 5.28415 15.3117C5.2964 15.0604 5.42011 14.8686 5.59264 14.6962C6.42677 13.8631 7.25898 13.0278 8.09157 12.1931C8.14692 12.1379 8.19823 12.0788 8.27847 11.993C7.14313 11.8744 6.11943 11.5953 5.24336 10.9097C5.13479 10.8245 5.02238 10.7422 4.92281 10.6468C4.53945 10.2784 4.50096 9.85691 4.80447 9.42204C5.06375 9.05017 5.49996 8.95021 5.95283 9.16372C6.04072 9.20489 6.12421 9.25679 6.20426 9.31213C7.83728 10.4343 10.081 10.4655 11.7203 9.36306C11.8825 9.23917 12.0562 9.13653 12.2576 9.0856C12.6492 8.98506 13.0134 9.12849 13.2237 9.47087C13.4644 9.86094 13.4611 10.2424 13.1655 10.5457Z" fill="#8FBAD9"/></svg>