<svg width="17" height="17" viewBox="0 0 17 17" fill="none" xmlns="http://www.w3.org/2000/svg"><path d="M1.15893 14.2952H3.86352V16.6137C3.86352 16.7265 3.89962 16.8188 3.97223 16.891C4.04465 16.9637 4.13722 17 4.25 17H6.26623C6.37087 17 6.46141 16.9637 6.53789 16.891C6.61437 16.8188 6.6525 16.7265 6.6525 16.6137V14.2952H12.7498C12.8623 14.2952 12.9549 14.2593 13.0275 14.1867C13.1002 14.1141 13.1362 14.0217 13.1362 13.9089V12.3634C13.1362 12.2512 13.1002 12.1582 13.0275 12.0861C12.9551 12.0134 12.8623 11.9771 12.7498 11.9771H6.6523V10.5523H10.7574C12.3672 10.5523 13.681 10.0618 14.6995 9.07937C15.7176 8.09798 16.2269 6.83027 16.2269 5.27615C16.2269 3.72307 15.7176 2.45532 14.6995 1.47293C13.6812 0.491511 12.3671 0 10.7574 0H4.2498C4.13699 0 4.04461 0.036291 3.97203 0.108506C3.89962 0.181122 3.86332 0.274098 3.86332 0.38627V7.98091H1.15893C1.04616 7.98091 0.953749 8.01907 0.881167 8.09552C0.808785 8.172 0.772461 8.26254 0.772461 8.36715V10.166C0.772461 10.2788 0.808552 10.3712 0.881167 10.4438C0.953782 10.5164 1.04596 10.5523 1.15893 10.5523H3.86352V11.9771H1.15893C1.04616 11.9771 0.953749 12.0134 0.881167 12.086C0.808785 12.1582 0.772461 12.251 0.772461 12.3634V13.9089C0.772461 14.0217 0.808552 14.1141 0.881167 14.1867C0.953749 14.2593 1.04613 14.2952 1.15893 14.2952ZM6.6523 2.57199H10.5159C11.3691 2.57199 12.0572 2.82143 12.5805 3.32047C13.1036 3.81955 13.3653 4.47175 13.3653 5.27635C13.3653 6.08135 13.1036 6.73376 12.5805 7.23223C12.0572 7.73171 11.369 7.98115 10.5159 7.98115H6.6523V2.57199Z" fill="#191A1C"/></svg>