<svg width="16" height="16" viewBox="0 0 16 16" fill="none" xmlns="http://www.w3.org/2000/svg"><path d="M13.1379 2.86189L10.4712 0.195203C10.4711 0.195078 10.4709 0.195016 10.4709 0.194891C10.4554 0.179484 10.4392 0.164891 10.4224 0.151047C10.4146 0.144703 10.4065 0.139203 10.3986 0.133266C10.3891 0.126172 10.3798 0.118828 10.3699 0.112234C10.3604 0.105891 10.3506 0.100391 10.3409 0.0945781C10.3319 0.0892344 10.3232 0.0836406 10.314 0.0787031C10.3041 0.0733906 10.2939 0.0688906 10.2837 0.0641094C10.2741 0.0595781 10.2647 0.0547969 10.2549 0.0507031C10.245 0.0466406 10.235 0.0433281 10.225 0.0397656C10.2144 0.0359844 10.2041 0.0319531 10.1933 0.0287031C10.1833 0.0256719 10.1731 0.0234531 10.163 0.0209219C10.1521 0.0181406 10.1412 0.0150781 10.1301 0.0128594C10.1184 0.0105469 10.1065 0.00914063 10.0948 0.00745313C10.085 0.00607813 10.0755 0.00420313 10.0656 0.00323438C10.0219 -0.00107813 9.97776 -0.00107813 9.93401 0.00323438C9.92417 0.00420313 9.91461 0.00604688 9.90486 0.00745313C9.89307 0.00914063 9.88123 0.0105156 9.86954 0.0128594C9.85836 0.0150781 9.84754 0.0181406 9.83657 0.0209219C9.82645 0.0234531 9.81629 0.0256719 9.80629 0.0287031C9.79554 0.0319531 9.78514 0.0359844 9.77464 0.0397656C9.76464 0.0433594 9.75457 0.0466406 9.74473 0.0507031C9.73489 0.0547656 9.72548 0.0595781 9.71589 0.0641094C9.70576 0.0688906 9.69554 0.0733906 9.68561 0.0787031C9.67642 0.0836406 9.6677 0.0892344 9.65876 0.0945781C9.64901 0.100391 9.63917 0.105891 9.62967 0.112234C9.61979 0.118828 9.61054 0.126172 9.60104 0.133266C9.59311 0.139203 9.58498 0.144703 9.57726 0.151047C9.56039 0.164891 9.54417 0.179484 9.52876 0.194891C9.52864 0.195016 9.52851 0.195078 9.52842 0.195203L6.86176 2.86186C6.60142 3.1222 6.60142 3.54433 6.86176 3.80467C7.12211 4.06502 7.54423 4.06502 7.80457 3.80467L9.33317 2.27608V9.99995C9.33317 10.3681 9.63164 10.6666 9.99982 10.6666C10.368 10.6666 10.6665 10.3681 10.6665 9.99995V2.27611L12.1951 3.8047C12.4554 4.06505 12.8775 4.06505 13.1379 3.8047C13.3982 3.54433 13.3982 3.12223 13.1379 2.86189Z" fill="#898988"/><path d="M8.19509 12.1954L6.66649 13.724V6.00015C6.66649 5.63197 6.36802 5.3335 5.99983 5.3335C5.63165 5.3335 5.33318 5.63197 5.33318 6.00015V13.724L3.80458 12.1954C3.54423 11.9351 3.12211 11.9351 2.86176 12.1954C2.60142 12.4558 2.60142 12.8779 2.86176 13.1382L5.52843 15.8049C5.52855 15.805 5.52868 15.8051 5.5288 15.8052C5.54421 15.8206 5.56043 15.8352 5.57727 15.849C5.58499 15.8554 5.59315 15.8609 5.60108 15.8669C5.61055 15.874 5.61983 15.8813 5.62968 15.8879C5.63918 15.8942 5.64902 15.8997 5.65877 15.9055C5.66771 15.9109 5.67643 15.9165 5.68561 15.9214C5.69555 15.9267 5.70577 15.9312 5.71593 15.936C5.72549 15.9405 5.73493 15.9453 5.74474 15.9494C5.75458 15.9534 5.76465 15.9567 5.77465 15.9603C5.78518 15.9641 5.79555 15.9681 5.8063 15.9714C5.8163 15.9744 5.82646 15.9766 5.83658 15.9791C5.84755 15.9819 5.8584 15.985 5.86958 15.9872C5.8813 15.9895 5.89312 15.9909 5.9049 15.9926C5.91462 15.994 5.92421 15.9958 5.93405 15.9968C5.9778 16.0011 6.0219 16.0011 6.06565 15.9968C6.07549 15.9958 6.08505 15.994 6.0948 15.9926C6.10658 15.9909 6.11843 15.9895 6.13012 15.9872C6.1413 15.985 6.15212 15.9819 6.16308 15.9791C6.17321 15.9766 6.18337 15.9744 6.19337 15.9713C6.20412 15.9681 6.21452 15.964 6.22502 15.9603C6.23502 15.9567 6.24508 15.9534 6.25493 15.9493C6.26474 15.9453 6.27415 15.9405 6.28371 15.936C6.29387 15.9312 6.30412 15.9267 6.31405 15.9213C6.32321 15.9164 6.33193 15.9108 6.34084 15.9055C6.35059 15.8997 6.36046 15.8942 6.36996 15.8878C6.3798 15.8812 6.38905 15.8739 6.39849 15.8669C6.40646 15.8609 6.41462 15.8554 6.42237 15.849C6.43909 15.8353 6.45518 15.8208 6.47049 15.8055C6.47074 15.8053 6.47099 15.8051 6.47121 15.8049L9.13787 13.1382C9.39822 12.8779 9.39822 12.4557 9.13787 12.1954C8.87753 11.935 8.45547 11.9351 8.19509 12.1954Z" fill="#898988"/></svg>