<svg width="18" height="18" viewBox="0 0 18 18" fill="none" xmlns="http://www.w3.org/2000/svg"><g clip-path="url(#clip0)"><path d="M16.853 0H1.14953C0.514431 0 0 0.514431 0 1.14826V16.8517C0 17.4856 0.514431 18 1.14953 18H16.8517C17.4856 18 18 17.4856 18 16.8517V1.14826C18.0013 0.513161 17.4868 0 16.853 0ZM14.9312 10.9682C15.2602 11.3035 15.974 11.8662 15.8445 12.4391C15.7251 12.9649 14.9401 12.7731 14.178 12.8036C13.3079 12.8404 12.7922 12.8595 12.2689 12.4391C12.0224 12.2396 11.8776 12.0034 11.6414 11.7392C11.4267 11.5004 11.1562 11.0723 10.7878 11.0888C10.126 11.1219 10.3331 12.044 10.0981 12.6728C6.41959 13.252 4.94235 10.9796 3.63912 8.77454C3.00783 7.7063 2.09583 5.41232 2.09583 5.41232L4.6972 5.40343C4.6972 5.40343 5.53172 6.92132 5.75273 7.31254C5.94072 7.64533 6.14777 7.90953 6.36116 8.20676C6.54026 8.45318 6.82351 8.93586 7.13344 8.89648C7.63771 8.8317 7.72917 6.87559 7.4167 6.22017C7.29222 5.9547 6.99372 5.86197 6.68506 5.77179C6.78922 5.11382 9.60271 4.97664 10.0574 5.48726C10.7179 6.22906 9.60017 8.2944 10.5046 8.89648C11.7748 8.2309 12.8595 5.44408 12.8595 5.44408L15.9054 5.46313C15.9054 5.46313 15.4291 6.96959 14.9299 7.63771C14.6391 8.02893 13.6737 8.90029 13.7118 9.54682C13.7423 10.0587 14.5273 10.5566 14.9312 10.9682Z" fill="#8FBAD9"/></g><defs><clipPath id="clip0"><rect width="18" height="18" fill="white"/></clipPath></defs></svg>