<svg width="16" height="16" viewBox="0 0 16 16" fill="none" xmlns="http://www.w3.org/2000/svg"><g clip-path="url(#clip0)"><path d="M14.5212 3.38208C14.5209 3.37692 14.5203 3.37176 14.5195 3.36664C14.4995 3.33807 14.4749 3.31349 14.4543 3.28549C14.3049 3.08199 14.1468 2.88613 13.9799 2.69787C13.9342 2.64643 13.8884 2.59556 13.8415 2.54525C13.6697 2.36122 13.4894 2.18572 13.3008 2.01883C13.266 1.98795 13.2334 1.95597 13.1985 1.92566C12.7336 1.52741 12.2246 1.18371 11.6815 0.901378C11.6598 0.889958 11.6369 0.880245 11.6146 0.868791C11.3727 0.745876 11.1247 0.635387 10.8715 0.537826C10.8144 0.517262 10.7624 0.497803 10.7081 0.480655C10.4829 0.399505 10.2542 0.328436 10.0222 0.267447C9.95356 0.249161 9.88497 0.230305 9.81524 0.214296C9.58659 0.161144 9.35798 0.120553 9.12417 0.0873957C9.0533 0.0771137 8.98357 0.0633821 8.9121 0.0548083C8.30995 -0.0183711 7.70118 -0.0183711 7.09899 0.0548083C7.02756 0.0633821 6.95783 0.0771137 6.88692 0.0873957C6.65315 0.120553 6.42223 0.161144 6.19586 0.214296C6.12613 0.230305 6.05754 0.249161 5.98894 0.267447C5.75534 0.328402 5.52673 0.399472 5.30303 0.480655C5.24586 0.500081 5.19385 0.519539 5.13956 0.537826C4.8864 0.635387 4.63836 0.745843 4.39648 0.868791C4.37417 0.880212 4.35133 0.889924 4.3296 0.901378C3.78465 1.18341 3.27394 1.52707 2.80743 1.92566C2.77257 1.95593 2.73998 1.98795 2.70511 2.01883C2.51458 2.18649 2.33433 2.36199 2.16439 2.54525C2.11754 2.59556 2.07179 2.64643 2.02607 2.69787C1.85878 2.88573 1.70063 3.08159 1.55166 3.28545C1.5311 3.31345 1.50651 3.33804 1.48649 3.3666C1.48387 3.37159 1.48156 3.37675 1.47962 3.38204C-0.491904 6.14501 -0.491904 9.85489 1.47962 12.6178C1.48156 12.6231 1.48384 12.6283 1.48649 12.6333C1.50648 12.6618 1.53106 12.6864 1.55166 12.7144C1.70066 12.9179 1.85878 13.1138 2.02607 13.302C2.07179 13.3535 2.11754 13.4043 2.16439 13.4546C2.33664 13.6387 2.51686 13.8142 2.70511 13.9811C2.73998 14.0119 2.77257 14.0439 2.80743 14.0742C3.2723 14.4725 3.7813 14.8162 4.32444 15.0985C4.34618 15.1099 4.36902 15.1197 4.39132 15.1311C4.6332 15.254 4.88121 15.3645 5.1344 15.4621C5.19157 15.4826 5.24359 15.5021 5.29788 15.5192C5.52307 15.6004 5.75172 15.6715 5.98379 15.7324C6.05238 15.7507 6.12097 15.7696 6.1907 15.7856C6.41935 15.8388 6.64796 15.8793 6.88177 15.9125C6.95264 15.9228 7.02237 15.9365 7.09384 15.9451C7.69598 16.0183 8.30476 16.0183 8.90694 15.9451C8.97838 15.9365 9.04811 15.9228 9.11901 15.9125C9.35279 15.8793 9.58371 15.8388 9.81008 15.7856C9.87981 15.7696 9.9484 15.7507 10.017 15.7324C10.251 15.6715 10.4796 15.6004 10.7029 15.5192C10.7601 15.4998 10.8121 15.4804 10.8664 15.4621C11.1195 15.3645 11.3676 15.2541 11.6095 15.1311C11.6318 15.1197 11.6546 15.11 11.6763 15.0985C12.2195 14.8161 12.7285 14.4725 13.1933 14.0742C13.2282 14.0439 13.2608 14.0119 13.2957 13.9811C13.4862 13.8138 13.6665 13.6383 13.8364 13.4546C13.8832 13.4043 13.929 13.3535 13.9747 13.302C14.142 13.1138 14.3001 12.9179 14.4491 12.7144C14.4697 12.6864 14.4943 12.6618 14.5143 12.6333C14.5169 12.6283 14.5192 12.6231 14.5212 12.6178C16.4927 9.85492 16.4927 6.14504 14.5212 3.38208ZM13.869 4.46356C14.4156 5.36385 14.7457 6.37878 14.8332 7.42841H11.4094C11.3675 6.74732 11.2603 6.07186 11.0893 5.41127C12.0565 5.23015 12.9926 4.91097 13.869 4.46356ZM9.45741 1.29862C9.48943 1.30606 9.52028 1.31634 9.55229 1.32378C9.75693 1.3718 9.95986 1.42666 10.1582 1.49525C10.1885 1.50554 10.2182 1.51756 10.248 1.52841C10.4446 1.597 10.6383 1.67303 10.8281 1.75706C10.8613 1.7725 10.8939 1.78965 10.927 1.80509C11.1088 1.89159 11.2864 1.98514 11.4597 2.08575L11.5741 2.15491C11.7387 2.25552 11.8987 2.36316 12.0542 2.47787C12.0942 2.507 12.1342 2.53504 12.1737 2.56702C12.3261 2.68133 12.472 2.80384 12.6115 2.93456C12.6481 2.96772 12.6858 3.0003 12.7218 3.0346C12.8681 3.17349 13.0076 3.32038 13.1425 3.47244C13.1597 3.49243 13.1779 3.51072 13.1951 3.52961C12.4211 3.89845 11.6012 4.16183 10.7573 4.31268C10.3663 3.23786 9.8498 2.21295 9.21855 1.25924C9.29793 1.2735 9.37911 1.28151 9.45741 1.29862ZM5.73749 7.42838C5.78257 6.80992 5.88787 6.19732 6.05188 5.5993C6.6995 5.67623 7.35112 5.71437 8.0033 5.7136C8.65609 5.7134 9.30831 5.67428 9.95644 5.59642C10.1201 6.19541 10.2249 6.80898 10.2691 7.42838H5.73749ZM10.2691 8.57159C10.224 9.19004 10.1187 9.80264 9.9547 10.4007C9.30707 10.3237 8.65545 10.2856 8.00327 10.2864C7.35052 10.2856 6.69833 10.3238 6.05013 10.4007C5.88659 9.80261 5.7819 9.19001 5.73745 8.57159H10.2691ZM8.00327 1.51357C8.65375 2.4355 9.18874 3.43372 9.5963 4.48586C9.06717 4.54206 8.53542 4.5703 8.00327 4.57046C7.47172 4.56983 6.94055 4.54143 6.41194 4.48529C6.82001 3.43386 7.35437 2.43597 8.00327 1.51357ZM2.86467 3.47183C2.999 3.31978 3.13903 3.17289 3.28536 3.034C3.32136 2.9997 3.35911 2.96711 3.39568 2.93396C3.53668 2.80555 3.68264 2.68304 3.83352 2.56642C3.87297 2.53611 3.91296 2.50925 3.95298 2.47726C4.10845 2.36296 4.26851 2.25528 4.43312 2.1543L4.54743 2.08514C4.72081 1.9838 4.89839 1.89022 5.08015 1.80448C5.1133 1.78904 5.14589 1.7719 5.17905 1.75646C5.36881 1.67072 5.5626 1.59469 5.75922 1.52781C5.78893 1.51696 5.8164 1.50493 5.84895 1.49465C6.04729 1.42834 6.24907 1.37348 6.45485 1.32317C6.48687 1.31574 6.51771 1.30546 6.5503 1.29859C6.6286 1.28144 6.70979 1.27344 6.78923 1.25914C6.15771 2.21301 5.64107 3.23813 5.24992 4.31315C4.40596 4.1623 3.58601 3.89892 2.81209 3.53008C2.82923 3.51012 2.84752 3.49183 2.86467 3.47183ZM2.1376 4.46356C3.01377 4.91094 3.9497 5.23012 4.91667 5.41127C4.7459 6.0719 4.63889 6.74736 4.59716 7.42841H1.17334C1.26088 6.37878 1.59098 5.36385 2.1376 4.46356ZM2.1376 11.5364C1.59095 10.6361 1.26085 9.62122 1.17334 8.57159H4.59716C4.63909 9.25267 4.74627 9.92813 4.91724 10.5887C3.9501 10.7698 3.01398 11.089 2.1376 11.5364ZM6.54916 14.7013C6.51714 14.6939 6.4863 14.6836 6.45428 14.6762C6.24964 14.6282 6.04672 14.5733 5.84838 14.5047C5.81807 14.4944 5.78836 14.4824 5.75862 14.4716C5.56199 14.403 5.36824 14.3269 5.17844 14.2429C5.14529 14.2275 5.1127 14.2103 5.07954 14.1949C4.89778 14.1084 4.72021 14.0148 4.54682 13.9142L4.43252 13.8451C4.26791 13.7444 4.10785 13.6368 3.95238 13.5221C3.91236 13.493 3.87237 13.4649 3.83291 13.4329C3.68049 13.3186 3.53454 13.1961 3.39508 13.0654C3.3585 13.0322 3.32076 12.9997 3.28476 12.9654C3.13843 12.8265 2.99897 12.6796 2.86407 12.5275C2.84692 12.5075 2.82863 12.4892 2.81148 12.4704C3.58544 12.1015 4.40536 11.8381 5.24931 11.6873C5.6403 12.7621 6.15677 13.787 6.78802 14.7407C6.70861 14.7265 6.62746 14.7185 6.54916 14.7013ZM8.00327 14.4864C7.35279 13.5645 6.8178 12.5663 6.41024 11.5141C7.46881 11.4002 8.53656 11.4002 9.59513 11.5141L9.59456 11.5147C9.18657 12.5661 8.65221 13.564 8.00327 14.4864ZM13.1419 12.5281C13.0076 12.6802 12.8675 12.8271 12.7212 12.966C12.6852 13.0003 12.6475 13.0328 12.6109 13.066C12.4699 13.1948 12.3239 13.3173 12.1731 13.4335C12.1336 13.4638 12.0936 13.4936 12.0536 13.5227C11.8981 13.637 11.7381 13.7447 11.5735 13.8457L11.4591 13.9148C11.2861 14.0158 11.1086 14.1093 10.9264 14.1955C10.8933 14.2109 10.8607 14.2281 10.8275 14.2435C10.6378 14.3292 10.444 14.4053 10.2473 14.4722C10.2176 14.483 10.1902 14.495 10.1576 14.5053C9.95929 14.5716 9.7575 14.6265 9.55173 14.6768C9.51971 14.6842 9.48886 14.6945 9.45627 14.7014C9.37797 14.7185 9.29679 14.7265 9.21735 14.7408C9.8486 13.7871 10.3651 12.7622 10.7561 11.6874C11.6 11.8382 12.42 12.1016 13.1939 12.4705C13.1773 12.4898 13.1591 12.5081 13.1419 12.5281ZM13.869 11.5364C12.9928 11.0891 12.0569 10.7699 11.0899 10.5887C11.2607 9.9281 11.3677 9.25264 11.4094 8.57159H14.8332C14.7457 9.62118 14.4156 10.6361 13.869 11.5364Z" fill="#898988"/></g><defs><clipPath id="clip0"><rect width="16" height="16" fill="white"/></clipPath></defs></svg>